<mxfile host="65bd71144e">
    <diagram id="9hsbDwIOufMWBAoDMdGs" name="ページ1">
        <mxGraphModel dx="330" dy="250" grid="1" gridSize="10" guides="1" tooltips="1" connect="1" arrows="1" fold="1" page="1" pageScale="1" pageWidth="827" pageHeight="1169" math="0" shadow="0">
            <root>
                <mxCell id="0"/>
                <mxCell id="1" parent="0"/>
                <mxCell id="44" value="" style="group" vertex="1" connectable="0" parent="1">
                    <mxGeometry x="280" y="311" width="230.17000000000002" height="184.01" as="geometry"/>
                </mxCell>
                <mxCell id="3" style="edgeStyle=none;html=1;exitX=0.5;exitY=0;exitDx=0;exitDy=0;endArrow=open;endFill=0;" edge="1" parent="44" source="5">
                    <mxGeometry relative="1" as="geometry">
                        <mxPoint x="200" y="107.61666666666662" as="targetPoint"/>
                        <mxPoint x="168.755" y="107.70499999999998" as="sourcePoint"/>
                    </mxGeometry>
                </mxCell>
                <mxCell id="42" style="edgeStyle=none;html=1;exitX=0.25;exitY=0;exitDx=0;exitDy=0;endArrow=open;endFill=0;" edge="1" parent="44" source="5">
                    <mxGeometry relative="1" as="geometry">
                        <mxPoint x="200" y="69.55555555555554" as="targetPoint"/>
                    </mxGeometry>
                </mxCell>
                <mxCell id="5" value="" style="shape=trapezoid;perimeter=trapezoidPerimeter;whiteSpace=wrap;html=1;fixedSize=1;rotation=90;" vertex="1" parent="44">
                    <mxGeometry x="42.670000000000016" y="68.85000000000002" width="152.5" height="77.82" as="geometry"/>
                </mxCell>
                <mxCell id="6" value="" style="endArrow=open;html=1;entryX=0.25;entryY=1;entryDx=0;entryDy=0;endFill=0;" edge="1" parent="44">
                    <mxGeometry width="50" height="50" relative="1" as="geometry">
                        <mxPoint x="50" y="49" as="sourcePoint"/>
                        <mxPoint x="80" y="49" as="targetPoint"/>
                    </mxGeometry>
                </mxCell>
                <mxCell id="7" value="" style="endArrow=open;html=1;entryX=0.25;entryY=1;entryDx=0;entryDy=0;endFill=0;" edge="1" parent="44">
                    <mxGeometry width="50" height="50" relative="1" as="geometry">
                        <mxPoint x="50" y="89" as="sourcePoint"/>
                        <mxPoint x="80" y="89" as="targetPoint"/>
                    </mxGeometry>
                </mxCell>
                <mxCell id="8" value="" style="endArrow=open;html=1;entryX=0.25;entryY=1;entryDx=0;entryDy=0;endFill=0;" edge="1" parent="44">
                    <mxGeometry width="50" height="50" relative="1" as="geometry">
                        <mxPoint x="50" y="129" as="sourcePoint"/>
                        <mxPoint x="80" y="129" as="targetPoint"/>
                    </mxGeometry>
                </mxCell>
                <mxCell id="9" value="" style="endArrow=open;html=1;entryX=0.25;entryY=1;entryDx=0;entryDy=0;endFill=0;" edge="1" parent="44">
                    <mxGeometry width="50" height="50" relative="1" as="geometry">
                        <mxPoint x="50" y="169" as="sourcePoint"/>
                        <mxPoint x="80" y="169" as="targetPoint"/>
                    </mxGeometry>
                </mxCell>
                <mxCell id="10" value="priority_encoder" style="text;html=1;align=center;verticalAlign=middle;resizable=0;points=[];autosize=1;strokeColor=none;fillColor=none;fontSize=16;fontFamily=Courier New;" vertex="1" parent="44">
                    <mxGeometry x="30" width="180" height="30" as="geometry"/>
                </mxCell>
                <mxCell id="11" value="d[3]" style="text;html=1;align=center;verticalAlign=middle;resizable=0;points=[];autosize=1;strokeColor=none;fillColor=none;fontSize=16;fontFamily=Courier New;" vertex="1" parent="44">
                    <mxGeometry y="34" width="60" height="30" as="geometry"/>
                </mxCell>
                <mxCell id="15" value="" style="endArrow=none;html=1;" edge="1" parent="44">
                    <mxGeometry width="50" height="50" relative="1" as="geometry">
                        <mxPoint x="170" y="112.75999999999999" as="sourcePoint"/>
                        <mxPoint x="180" y="102.75999999999999" as="targetPoint"/>
                    </mxGeometry>
                </mxCell>
                <mxCell id="26" value="y" style="text;html=1;align=center;verticalAlign=middle;resizable=0;points=[];autosize=1;strokeColor=none;fillColor=none;fontSize=16;fontFamily=Courier New;" vertex="1" parent="44">
                    <mxGeometry x="190" y="92.75999999999999" width="30" height="30" as="geometry"/>
                </mxCell>
                <mxCell id="27" value="2" style="text;html=1;align=center;verticalAlign=middle;resizable=0;points=[];autosize=1;strokeColor=none;fillColor=none;fontSize=14;fontFamily=Courier New;" vertex="1" parent="44">
                    <mxGeometry x="160" y="104" width="30" height="30" as="geometry"/>
                </mxCell>
                <mxCell id="33" value="d[2]" style="text;html=1;align=center;verticalAlign=middle;resizable=0;points=[];autosize=1;strokeColor=none;fillColor=none;fontSize=16;fontFamily=Courier New;" vertex="1" parent="44">
                    <mxGeometry y="74" width="60" height="30" as="geometry"/>
                </mxCell>
                <mxCell id="34" value="d[1]" style="text;html=1;align=center;verticalAlign=middle;resizable=0;points=[];autosize=1;strokeColor=none;fillColor=none;fontSize=16;fontFamily=Courier New;" vertex="1" parent="44">
                    <mxGeometry y="114" width="60" height="30" as="geometry"/>
                </mxCell>
                <mxCell id="35" value="d[0]" style="text;html=1;align=center;verticalAlign=middle;resizable=0;points=[];autosize=1;strokeColor=none;fillColor=none;fontSize=16;fontFamily=Courier New;" vertex="1" parent="44">
                    <mxGeometry y="154" width="60" height="30" as="geometry"/>
                </mxCell>
                <mxCell id="38" value="11" style="text;html=1;align=center;verticalAlign=middle;resizable=0;points=[];autosize=1;strokeColor=none;fillColor=none;fontSize=14;fontFamily=Courier New;" vertex="1" parent="44">
                    <mxGeometry x="70" y="34" width="40" height="30" as="geometry"/>
                </mxCell>
                <mxCell id="39" value="10" style="text;html=1;align=center;verticalAlign=middle;resizable=0;points=[];autosize=1;strokeColor=none;fillColor=none;fontSize=14;fontFamily=Courier New;" vertex="1" parent="44">
                    <mxGeometry x="70" y="74" width="40" height="30" as="geometry"/>
                </mxCell>
                <mxCell id="40" value="01" style="text;html=1;align=center;verticalAlign=middle;resizable=0;points=[];autosize=1;strokeColor=none;fillColor=none;fontSize=14;fontFamily=Courier New;" vertex="1" parent="44">
                    <mxGeometry x="70" y="114" width="40" height="30" as="geometry"/>
                </mxCell>
                <mxCell id="41" value="00" style="text;html=1;align=center;verticalAlign=middle;resizable=0;points=[];autosize=1;strokeColor=none;fillColor=none;fontSize=14;fontFamily=Courier New;" vertex="1" parent="44">
                    <mxGeometry x="70" y="154" width="40" height="30" as="geometry"/>
                </mxCell>
                <mxCell id="43" value="en" style="text;html=1;align=center;verticalAlign=middle;resizable=0;points=[];autosize=1;strokeColor=none;fillColor=none;fontSize=16;fontFamily=Courier New;" vertex="1" parent="44">
                    <mxGeometry x="190.17000000000002" y="54" width="40" height="30" as="geometry"/>
                </mxCell>
            </root>
        </mxGraphModel>
    </diagram>
</mxfile>